<?xml version="1.0" encoding="utf-8"?>

<!-- The icon can be used freely in both personal and commercial projects with no attribution required, but always appreciated. You may NOT sub-license, resell, rent, redistribute or otherwise transfer the icon without express written permission from iconmonstr.com -->

<!DOCTYPE svg PUBLIC "-//W3C//DTD SVG 1.1//EN" "http://www.w3.org/Graphics/SVG/1.1/DTD/svg11.dtd">
<svg version="1.1" xmlns="http://www.w3.org/2000/svg" xmlns:xlink="http://www.w3.org/1999/xlink" x="0px" y="0px"
	 width="512px" height="512px" viewBox="0 0 512 512" enable-background="new 0 0 512 512" xml:space="preserve">
<path id="clipboard-2-icon" d="M373.529,81.667c-9.092,0-17.814-3.598-24.262-10.008L327.5,50h-143l-21.766,21.658
	c-6.447,6.411-15.17,10.009-24.263,10.009H79.5V462h353V81.667H373.529z M119,121.5h62.334l24.916,25H307.5l25.25-25H392v213.833
	h-88.473V421.5H119V121.5z M333.527,421.5v-56.167H392L333.527,421.5z M256,343.75h-84.011v-30H256V343.75z M339.979,288.332
	h-167.99v-30h167.99V288.332z M339.979,233h-167.99v-30h167.99V233z"/>
</svg>
